<svg xmlns="http://www.w3.org/2000/svg" xml:space="preserve" viewBox="0 0 806.173 881.041">
  <g fill="#242424">
    <path d="M339.846 485.216q11.875 14 33.425 22.65c7.85 4.075 17.125 6.475 26.95 6.475 10.4-.075 20.425-1.65 29.875-4.5l-.75.2c6.55-1.75 12.3-4.325 17.5-7.7l-.225.15c5.7-3.55 10.65-7.475 15.1-11.875a101.982 101.982 0 0 0 19.15-25.325l.275-.55c4.1-8.4 6.475-18.275 6.475-28.7 0-.525 0-1.05-.025-1.575v.075-152.525c0-6.35-.775-12.5-2.275-18.4l.1.525c-5.45-16.9-15.175-31.15-27.9-41.95l-.125-.1q-19.4-16.175-47.45-18.325c-3.075-.7-6.625-1.075-10.25-1.075s-7.175.4-10.575 1.15l.325-.05c-7.975 1.85-14.8 4.075-21.375 6.8l.9-.325c-15.1 6.6-27.55 16.95-36.475 29.9l-.175.275c-8.125 12.3-12.95 27.375-12.95 43.6 0 .6 0 1.2.025 1.8v-.1 142.775c0 4.05.4 8 1.15 11.825l-.075-.375c.625 2.9 1.025 6.25 1.075 9.675v.05c3.85 13.675 10.15 25.575 18.475 35.775l-.15-.175z"/>
    <path d="M802.496 287.866c.7-4.85 1.075-10.475 1.075-16.175 0-5.7-.4-11.325-1.15-16.8l.075.625c-1.45-5.75-2.875-12.225-4.325-19.4-1.425-7.325-3.675-13.825-6.675-19.875l.2.45c-5.725-11.575-11.825-21.45-18.7-30.725l.375.525c-7.05-9.175-15.25-17-24.45-23.5l-.35-.225a96.965 96.965 0 0 0-23.075-13.775l-.65-.25c-8.125-3.45-17.575-6.1-27.425-7.475l-.6-.075c-6.825-1.375-14.7-2.15-22.725-2.15h-1.05.05c-9.15 0-18.1.775-26.825 2.3l.925-.125c-12.35 3.1-23.125 7.15-33.25 12.275l.9-.425c-11 5.475-20.175 10.85-28.975 16.75l.925-.575q-12.95 8.625-25.875 16.175c-7.675 4.55-16.875 9.25-26.4 13.375l-1.65.65-2.15 1.075v228.05c0 8.6-.775 17-2.275 25.15l.125-.85c-1.575 8.6-3.825 16.2-6.75 23.45l.275-.8c-7.1 15.775-16.125 29.3-27.05 41.075l.1-.1c-11.1 11.625-24.325 21.075-39.125 27.725l-.775.325c-5.025 2.575-11.075 5.125-17.35 7.25l-1 .3c-6.025 2.05-12.95 3.225-20.15 3.225h-.35.025c-2.775.925-5.95 1.45-9.25 1.45a29.1 29.1 0 0 1-4.925-.4l.175.025c-4.725-.675-10.2-1.075-15.75-1.075h-.45.025c-9.3-1.525-17.3-3.4-25.1-5.75l1.375.35c-8.225-2.55-15.375-5.85-21.975-9.95l.4.225c-13.125-7.35-24.225-16.725-33.275-27.825l-.175-.2c-9.075-11.15-16.7-23.975-22.3-37.825l-.35-1c-1.45-4.325-2.875-8.25-4.325-11.875-1.375-3.4-2.15-7.35-2.15-11.475v-.4.025l-2.15-16.175V200.49c0-.7-.7-1.075-2.15-1.075q-10.775-6.475-19.4-10.775c-6.6-3.375-12.25-6.95-17.525-10.975l.275.2q-12.95-6.475-24.8-12.95-11.85-6.475-22.65-12.95c-9.975-5.2-21.525-9.3-33.675-11.725l-.825-.15c-6.6-1.25-14.175-1.95-21.925-1.95-5.2 0-10.3.325-15.35.95l.6-.05c-12.075 1.475-23 4.125-33.425 7.875l1.05-.325c-10.775 3.95-20.075 9.425-28.175 16.3l.125-.1c-8.7 5.825-16.15 12.6-22.5 20.325l-.15.175c-6 7.225-11.375 15.375-15.825 24.05l-.35.75c-3.7 7.1-7.325 15.65-10.375 24.5l-.425 1.375c-2.75 8.15-4.325 17.525-4.325 27.3v.775-.05c-.55 3.525-.875 7.575-.875 11.7 0 6.175.7 12.175 2.05 17.95l-.1-.525q3.225 14.025 7.55 26.95c4.875 11.125 10.65 20.7 17.475 29.425l-.225-.3c7.425 9.525 15.95 17.725 25.525 24.55l.375.25 51.775 34.5c5.625 5.65 11.625 10.925 17.9 15.85l.425.325c6.725 5.25 12.7 10.525 18.325 16.175l21.575 21.575a155.542 155.542 0 0 1 19.05 23.175l.35.55q8.625 10.775 15.1 20.5t12.95 20.5c6.75 9.35 12.875 19.975 17.875 31.225l.45 1.15q7.55 17.25 14.025 34.5 8.625 23.725 15.1 46.375c4 13.4 7.05 29.15 8.55 45.375l.075 1c1.35 3.85 2.15 8.3 2.15 12.925s.8 9.075 2.25 13.225l-.075-.275c0 6.1.4 12.075 1.15 17.95l-.075-.7c.675 5.175 1.075 11.175 1.075 17.25l4.325 25.875c1.7 9.975 3.95 18.675 6.825 27.1l-.35-1.2c3.225 11.075 7.65 20.75 13.225 29.6l-.275-.475c5.975 9.6 13.125 17.775 21.4 24.675l.175.125c16.775 15.1 38.275 25.275 62.025 28l.525.05c5.8 1.3 12.5 2.075 19.35 2.15h.075c6.125 0 12.075-.8 17.75-2.275l-.5.1h.725c8.275 0 16.175-1.575 23.425-4.475l-.425.15q10.775-4.325 23.725-10.775c15.025-9.325 27.325-21.65 36.4-36.2l.275-.475c6.9-8.225 12.4-17.925 16-28.5l.175-.625c3.325-9.6 5.975-20.9 7.45-32.575l.1-.875a99.705 99.705 0 0 1 1.15-14.575l-.075.55c.65-4.2 1.05-9.05 1.075-13.975v-.025q2.15-12.95 3.225-25.875c.7-8.975 1.85-17.1 3.45-25.05l-.225 1.325q2.15-12.95 4.325-26.95c1.6-10.275 3.85-19.375 6.825-28.125l-.35 1.175 10.775-34.5 12.95-34.5q8.625-17.25 17.25-33.425c6.525-12.125 12.95-22.35 20-32.125l-.575.85q12.95-15.1 24.8-29.125 11.85-14.025 24.8-29.125 8.625-6.475 16.175-12.95 7.55-6.475 14.025-12.95l17.25-12.95c5-3.85 10.675-7.425 16.625-10.5l.625-.3 21.575-15.1 21.575-17.25a145.881 145.881 0 0 0 15.875-18.95l.3-.45c4.825-6.825 8.85-14.675 11.675-23.075l.2-.65v2.15c3.925-8.75 6.925-18.9 8.55-29.525l.075-.675z"/>
    <text stroke="#242424" stroke-width="3.623" font-size="159.87" style="text-align:end" transform="translate(-577.904 -97.656)" ><tspan x="579.382" y="215.857" font-family="Arial" font-weight="400" style="-inkscape-font-specification:&quot;Arial, Normal&quot;;font-variant-ligatures:normal;font-variant-caps:normal;font-variant-numeric:normal;font-variant-east-asian:normal;letter-spacing:1rem;">D2 DOCS</tspan></text>
  </g>
</svg>